<svg width="670" height="671" xmlns="http://www.w3.org/2000/svg" xmlns:xlink="http://www.w3.org/1999/xlink" overflow="hidden"><defs><clipPath id="clip0"><rect x="1010" y="852" width="670" height="671"/></clipPath><clipPath id="clip1"><rect x="1214" y="1057" width="260" height="260"/></clipPath><clipPath id="clip2"><rect x="1214" y="1057" width="260" height="260"/></clipPath><clipPath id="clip3"><rect x="1214" y="1057" width="260" height="260"/></clipPath></defs><g clip-path="url(#clip0)" transform="translate(-1010 -852)"><path d="M1020.5 1187.5C1020.5 1008.01 1165.78 862.5 1345 862.5 1524.22 862.5 1669.5 1008.01 1669.5 1187.5 1669.5 1366.99 1524.22 1512.5 1345 1512.5 1165.78 1512.5 1020.5 1366.99 1020.5 1187.5Z" stroke="#000000" stroke-width="20.625" stroke-miterlimit="8" fill="#FFFFFF" fill-rule="evenodd"/><g clip-path="url(#clip1)"><g clip-path="url(#clip2)"><g clip-path="url(#clip3)"><path d="M1260.04 1086.79 1324.77 1086.79 1324.77 1287.21 1260.04 1287.21Z"/><path d="M1363.23 1086.79 1427.96 1086.79 1427.96 1287.21 1363.23 1287.21Z"/></g></g></g></g></svg>